<svg viewBox="122 162 96 96" fill="none" xmlns="http://www.w3.org/2000/svg">
  <style>
    :root {
      color-scheme: light dark;
    }

    .mark {
      fill: #C6A96B;
    }

    @media (prefers-color-scheme: dark) {
      .mark {
        fill: #FFFFFF;
      }
    }
  </style>
  <path class="mark" d="M146.102 191.669V180.548C146.102 179.4 147.036 178.47 148.185 178.477L189.598 178.724C212.382 178.465 213.288 212.77 189.598 210.44C213.029 215.359 209.793 238.92 187.009 241.379H148.173C147.029 241.379 146.102 240.452 146.102 239.308V235.813C146.102 234.669 147.029 233.741 148.173 233.741H164.414C164.716 233.741 165.016 233.676 165.288 233.546C167.126 232.668 168.228 231.967 168.822 231.157C169.499 230.236 168.477 229.211 167.334 229.211H148.173C147.029 229.211 146.102 228.283 146.102 227.139V215.877C146.102 214.733 147.029 213.806 148.173 213.806H163.478C163.69 213.806 163.903 213.755 164.115 213.739C165.545 213.626 164.084 216.99 162.187 221.441C161.61 222.797 162.606 224.291 164.08 224.291H183.488C183.677 224.291 183.866 224.268 184.044 224.206C186.823 223.234 186.915 219.993 184.32 217.518C183.98 217.193 183.516 217.039 183.045 217.039H170.957C170.042 217.166 170.056 216.291 171.575 212.747C172.17 211.358 171.173 209.793 169.662 209.793H148.173C147.029 209.793 146.102 208.865 146.102 207.721V200.213C146.102 199.069 147.029 198.142 148.173 198.142H162.381C163.362 198.142 164.076 199.072 163.822 200.019C163.568 200.966 164.282 201.896 165.262 201.896H182.104C182.435 201.896 182.765 201.821 183.047 201.649C186.443 199.58 186.127 195.69 183.015 193.949C182.753 193.802 182.451 193.74 182.15 193.74H148.173C147.029 193.74 146.102 192.813 146.102 191.669Z"/>
  <path class="mark" d="M201.247 182.477L182.477 193.739C185.454 195.81 187.007 198.788 182.735 201.895L189.855 210.438C210.827 212.121 209.921 188.561 201.247 182.477Z"/>
  <rect class="mark" x="127.59" y="178.465" width="16.57" height="5.43704" rx="2.33016"/>
  <rect class="mark" x="131.473" y="213.934" width="12.6864" height="4.91922" rx="2.33016"/>
  <rect class="mark" x="136.133" y="193.223" width="8.0261" height="4.40141" rx="2.2007"/>
  <rect class="mark" x="136.133" y="236.977" width="8.0261" height="4.40141" rx="2.2007"/>
  <path class="mark" d="M162.292 178.465H146.745C146.316 178.465 145.969 178.813 145.969 179.242V192.964C145.969 193.393 146.316 193.74 146.745 193.74H168.818C169.388 193.74 169.764 193.145 169.519 192.63L162.994 178.908C162.865 178.637 162.592 178.465 162.292 178.465Z"/>
  <path class="mark" d="M168.589 193.737L162.41 178.462C192.314 177.815 199.952 178.203 202.282 184.287L182.637 193.737H168.589Z"/>
</svg>
