<svg width="376" height="76" viewBox="122 172 376 76" fill="none" xmlns="http://www.w3.org/2000/svg">
<path d="M146.102 191.669V180.548C146.102 179.4 147.036 178.47 148.185 178.477L189.598 178.724C212.382 178.465 213.288 212.77 189.598 210.44C213.029 215.359 209.793 238.92 187.009 241.379H148.173C147.029 241.379 146.102 240.452 146.102 239.308V235.813C146.102 234.669 147.029 233.741 148.173 233.741H164.414C164.716 233.741 165.016 233.676 165.288 233.546C167.126 232.668 168.228 231.967 168.822 231.157C169.499 230.236 168.477 229.211 167.334 229.211H148.173C147.029 229.211 146.102 228.283 146.102 227.139V215.877C146.102 214.733 147.029 213.806 148.173 213.806H163.478C163.69 213.806 163.903 213.755 164.115 213.739C165.545 213.626 164.084 216.99 162.187 221.441C161.61 222.797 162.606 224.291 164.08 224.291H183.488C183.677 224.291 183.866 224.268 184.044 224.206C186.823 223.234 186.915 219.993 184.32 217.518C183.98 217.193 183.516 217.039 183.045 217.039H170.957C170.042 217.166 170.056 216.291 171.575 212.747C172.17 211.358 171.173 209.793 169.662 209.793H148.173C147.029 209.793 146.102 208.865 146.102 207.721V200.213C146.102 199.069 147.029 198.142 148.173 198.142H162.381C163.362 198.142 164.076 199.072 163.822 200.019C163.568 200.966 164.282 201.896 165.262 201.896H182.104C182.435 201.896 182.765 201.821 183.047 201.649C186.443 199.58 186.127 195.69 183.015 193.949C182.753 193.802 182.451 193.74 182.15 193.74H148.173C147.029 193.74 146.102 192.813 146.102 191.669Z" fill="#EBF3F6"/>
<g filter="url(#filter0_f_21_5)">
<path d="M201.247 182.477L182.477 193.739C185.454 195.81 187.007 198.788 182.735 201.895L189.855 210.438C210.827 212.121 209.921 188.561 201.247 182.477Z" fill="#EBF3F6"/>
</g>
<rect x="127.59" y="178.465" width="16.57" height="5.43704" rx="2.33016" fill="#EBF3F6"/>
<rect x="131.473" y="213.934" width="12.6864" height="4.91922" rx="2.33016" fill="#EBF3F6"/>
<rect x="136.133" y="193.223" width="8.0261" height="4.40141" rx="2.2007" fill="#EBF3F6"/>
<rect x="136.133" y="236.977" width="8.0261" height="4.40141" rx="2.2007" fill="#EBF3F6"/>
<g filter="url(#filter1_f_21_5)">
<path d="M162.292 178.465H146.745C146.316 178.465 145.969 178.813 145.969 179.242V192.964C145.969 193.393 146.316 193.74 146.745 193.74H168.818C169.388 193.74 169.764 193.145 169.519 192.63L162.994 178.908C162.865 178.637 162.592 178.465 162.292 178.465Z" fill="#EBF3F6"/>
</g>
<g filter="url(#filter2_f_21_5)">
<path d="M168.589 193.737L162.41 178.462C192.314 177.815 199.952 178.203 202.282 184.287L182.637 193.737H168.589Z" fill="#EBF3F6"/>
</g>
<path d="M243.924 211.135C244.779 211.714 245.489 212.473 246.054 213.41C246.619 214.348 246.902 215.485 246.902 216.822C246.902 218.187 246.606 219.373 246.013 220.379C245.42 221.386 244.648 222.213 243.697 222.861C242.773 223.495 241.725 223.978 240.553 224.308C239.395 224.639 238.196 224.805 236.955 224.805H223.058V223.336C223.389 223.309 223.872 223.254 224.506 223.171C225.14 223.074 225.595 222.964 225.871 222.84C226.298 222.647 226.601 222.392 226.781 222.075C226.96 221.744 227.049 221.324 227.049 220.814V199.72C227.049 199.252 226.967 198.838 226.801 198.48C226.65 198.121 226.339 197.832 225.871 197.611C225.457 197.404 224.995 197.246 224.485 197.135C223.975 197.025 223.548 196.956 223.203 196.929V195.46H236.748C237.796 195.46 238.796 195.564 239.747 195.77C240.712 195.977 241.629 196.343 242.497 196.866C243.311 197.349 243.979 198.004 244.503 198.831C245.027 199.658 245.289 200.665 245.289 201.85C245.289 202.884 245.103 203.808 244.731 204.621C244.358 205.421 243.834 206.11 243.159 206.689C242.525 207.241 241.794 207.71 240.967 208.096C240.153 208.468 239.271 208.757 238.32 208.964V209.15C239.161 209.247 240.098 209.46 241.132 209.791C242.18 210.108 243.111 210.556 243.924 211.135ZM238.94 206.71C239.45 206.117 239.802 205.469 239.995 204.766C240.202 204.063 240.305 203.229 240.305 202.264C240.305 200.651 239.864 199.389 238.982 198.48C238.099 197.556 236.707 197.094 234.804 197.094C234.363 197.094 233.805 197.108 233.129 197.135C232.468 197.149 231.909 197.163 231.454 197.177V208.447H234.081C235.211 208.447 236.176 208.302 236.976 208.013C237.789 207.723 238.444 207.289 238.94 206.71ZM241.794 216.078C241.794 214.341 241.208 212.914 240.036 211.797C238.878 210.68 237.217 210.122 235.053 210.122C234.17 210.122 233.426 210.136 232.819 210.164C232.213 210.177 231.758 210.191 231.454 210.205V220.545C231.454 221.413 231.806 222.068 232.509 222.509C233.212 222.95 234.191 223.171 235.445 223.171C237.5 223.171 239.071 222.571 240.16 221.372C241.25 220.172 241.794 218.408 241.794 216.078ZM270.167 214.403C270.167 215.837 269.939 217.25 269.484 218.642C269.029 220.021 268.381 221.193 267.54 222.158C266.589 223.261 265.486 224.081 264.231 224.619C262.977 225.156 261.571 225.425 260.013 225.425C258.717 225.425 257.483 225.184 256.311 224.701C255.139 224.205 254.098 223.488 253.189 222.551C252.292 221.627 251.576 220.503 251.038 219.18C250.514 217.843 250.252 216.347 250.252 214.692C250.252 211.508 251.176 208.902 253.023 206.875C254.884 204.849 257.318 203.836 260.323 203.836C263.177 203.836 265.527 204.801 267.375 206.731C269.236 208.647 270.167 211.204 270.167 214.403ZM265.886 214.444C265.886 213.41 265.782 212.321 265.576 211.177C265.369 210.019 265.059 209.04 264.645 208.24C264.204 207.386 263.625 206.703 262.908 206.193C262.191 205.669 261.316 205.407 260.282 205.407C259.22 205.407 258.31 205.669 257.552 206.193C256.807 206.717 256.201 207.434 255.732 208.344C255.291 209.185 254.981 210.143 254.802 211.218C254.622 212.294 254.533 213.334 254.533 214.341C254.533 215.664 254.636 216.891 254.843 218.022C255.063 219.138 255.408 220.138 255.877 221.02C256.346 221.903 256.932 222.599 257.635 223.109C258.352 223.605 259.234 223.853 260.282 223.853C262.005 223.853 263.37 223.019 264.376 221.351C265.383 219.683 265.886 217.381 265.886 214.444ZM295.458 224.432L288.344 224.887L288.034 224.598V222.695L287.868 222.654C287.151 223.454 286.262 224.108 285.201 224.619C284.153 225.129 283.071 225.384 281.954 225.384C280.796 225.384 279.672 225.129 278.583 224.619C277.508 224.095 276.57 223.364 275.771 222.427C274.957 221.475 274.309 220.331 273.827 218.994C273.358 217.656 273.124 216.181 273.124 214.568C273.124 213.093 273.379 211.694 273.889 210.37C274.399 209.047 275.102 207.889 275.998 206.896C276.839 205.972 277.866 205.235 279.079 204.683C280.306 204.132 281.554 203.856 282.822 203.856C283.774 203.856 284.704 203.98 285.614 204.228C286.538 204.463 287.331 204.766 287.992 205.138V198.045C287.992 197.466 287.896 196.942 287.703 196.474C287.51 195.991 287.241 195.626 286.896 195.378C286.51 195.116 285.986 194.93 285.325 194.819C284.677 194.695 283.974 194.606 283.215 194.55V193.268L291.549 192.793L291.859 193.103V220.607C291.859 221.089 291.949 221.503 292.128 221.847C292.321 222.178 292.597 222.461 292.955 222.695C293.217 222.861 293.597 222.964 294.093 223.006C294.589 223.047 295.044 223.074 295.458 223.088V224.432ZM287.992 220.855V208.923C287.882 208.564 287.703 208.178 287.455 207.765C287.207 207.351 286.896 206.972 286.524 206.627C286.124 206.283 285.656 206 285.118 205.779C284.58 205.545 283.953 205.428 283.236 205.428C282.409 205.428 281.644 205.642 280.941 206.069C280.251 206.496 279.638 207.11 279.1 207.909C278.59 208.681 278.183 209.667 277.88 210.867C277.591 212.052 277.446 213.369 277.446 214.816C277.446 215.974 277.556 217.029 277.777 217.98C277.997 218.918 278.369 219.793 278.893 220.607C279.376 221.379 279.989 221.999 280.734 222.468C281.492 222.937 282.388 223.171 283.422 223.171C284.525 223.171 285.435 222.93 286.152 222.447C286.883 221.965 287.496 221.434 287.992 220.855ZM319.301 224.432L312.663 224.887L312.353 224.598V222.013H312.229C311.898 222.358 311.526 222.73 311.112 223.13C310.699 223.516 310.223 223.867 309.685 224.184C309.065 224.557 308.465 224.839 307.886 225.032C307.307 225.225 306.487 225.322 305.425 225.322C303.619 225.322 302.241 224.736 301.289 223.564C300.352 222.378 299.883 220.662 299.883 218.415V208.654C299.883 208.158 299.787 207.744 299.594 207.413C299.414 207.068 299.146 206.772 298.787 206.524C298.539 206.358 298.229 206.241 297.857 206.172C297.484 206.09 297.091 206.034 296.678 206.007V204.663L303.481 204.166L303.792 204.456V218.621C303.792 220.097 304.122 221.206 304.784 221.951C305.446 222.695 306.239 223.068 307.162 223.068C307.921 223.068 308.596 222.95 309.189 222.716C309.782 222.482 310.278 222.206 310.678 221.889C311.05 221.599 311.374 221.296 311.65 220.979C311.939 220.648 312.16 220.345 312.312 220.069V208.509C312.312 208.054 312.215 207.654 312.022 207.31C311.829 206.951 311.56 206.648 311.216 206.4C310.967 206.234 310.595 206.138 310.099 206.11C309.616 206.069 309.072 206.034 308.465 206.007V204.663L315.869 204.166L316.179 204.456V220.648C316.179 221.117 316.275 221.517 316.468 221.847C316.661 222.178 316.93 222.461 317.275 222.695C317.523 222.847 317.819 222.95 318.164 223.006C318.509 223.047 318.888 223.074 319.301 223.088V224.432ZM344.324 224.805H334.335V223.44C334.653 223.412 334.997 223.385 335.369 223.357C335.755 223.33 336.073 223.274 336.321 223.192C336.707 223.068 336.989 222.854 337.169 222.551C337.362 222.234 337.458 221.827 337.458 221.331V210.846C337.458 209.398 337.113 208.282 336.424 207.496C335.749 206.71 334.921 206.317 333.943 206.317C333.212 206.317 332.543 206.434 331.937 206.669C331.33 206.889 330.792 207.165 330.324 207.496C329.869 207.813 329.503 208.158 329.228 208.53C328.966 208.888 328.773 209.178 328.649 209.398V221.124C328.649 221.592 328.745 221.978 328.938 222.282C329.131 222.585 329.421 222.819 329.807 222.985C330.096 223.123 330.406 223.226 330.737 223.295C331.082 223.364 331.433 223.412 331.792 223.44V224.805H321.804V223.44C322.121 223.412 322.445 223.385 322.776 223.357C323.12 223.33 323.417 223.274 323.665 223.192C324.051 223.068 324.333 222.854 324.513 222.551C324.706 222.234 324.802 221.827 324.802 221.331V208.737C324.802 208.268 324.699 207.84 324.492 207.454C324.299 207.055 324.023 206.731 323.665 206.483C323.403 206.317 323.093 206.2 322.734 206.131C322.376 206.048 321.99 205.993 321.576 205.966V204.621L328.359 204.166L328.649 204.456V207.33H328.752C329.083 207 329.496 206.607 329.993 206.152C330.489 205.683 330.958 205.304 331.399 205.014C331.909 204.683 332.516 204.408 333.219 204.187C333.922 203.967 334.715 203.856 335.597 203.856C337.555 203.856 339.002 204.47 339.94 205.697C340.891 206.91 341.367 208.53 341.367 210.556V221.165C341.367 221.648 341.449 222.041 341.615 222.344C341.78 222.633 342.063 222.861 342.463 223.026C342.793 223.164 343.076 223.261 343.31 223.316C343.559 223.371 343.896 223.412 344.324 223.44V224.805ZM369.16 224.432L362.046 224.887L361.736 224.598V222.695L361.571 222.654C360.854 223.454 359.964 224.108 358.903 224.619C357.855 225.129 356.773 225.384 355.656 225.384C354.498 225.384 353.374 225.129 352.285 224.619C351.21 224.095 350.273 223.364 349.473 222.427C348.66 221.475 348.012 220.331 347.529 218.994C347.06 217.656 346.826 216.181 346.826 214.568C346.826 213.093 347.081 211.694 347.591 210.37C348.101 209.047 348.804 207.889 349.7 206.896C350.541 205.972 351.568 205.235 352.782 204.683C354.009 204.132 355.256 203.856 356.525 203.856C357.476 203.856 358.407 203.98 359.316 204.228C360.24 204.463 361.033 204.766 361.695 205.138V198.045C361.695 197.466 361.598 196.942 361.405 196.474C361.212 195.991 360.943 195.626 360.599 195.378C360.213 195.116 359.689 194.93 359.027 194.819C358.379 194.695 357.676 194.606 356.918 194.55V193.268L365.251 192.793L365.562 193.103V220.607C365.562 221.089 365.651 221.503 365.831 221.847C366.024 222.178 366.299 222.461 366.658 222.695C366.92 222.861 367.299 222.964 367.795 223.006C368.291 223.047 368.746 223.074 369.16 223.088V224.432ZM361.695 220.855V208.923C361.584 208.564 361.405 208.178 361.157 207.765C360.909 207.351 360.599 206.972 360.226 206.627C359.827 206.283 359.358 206 358.82 205.779C358.282 205.545 357.655 205.428 356.938 205.428C356.111 205.428 355.346 205.642 354.643 206.069C353.954 206.496 353.34 207.11 352.802 207.909C352.292 208.681 351.886 209.667 351.582 210.867C351.293 212.052 351.148 213.369 351.148 214.816C351.148 215.974 351.258 217.029 351.479 217.98C351.699 218.918 352.072 219.793 352.596 220.607C353.078 221.379 353.692 221.999 354.436 222.468C355.194 222.937 356.09 223.171 357.124 223.171C358.227 223.171 359.137 222.93 359.854 222.447C360.585 221.965 361.198 221.434 361.695 220.855ZM389.261 220.007C388.406 221.634 387.262 222.93 385.828 223.895C384.394 224.86 382.746 225.342 380.885 225.342C379.245 225.342 377.804 225.053 376.563 224.474C375.336 223.895 374.323 223.109 373.523 222.116C372.724 221.124 372.124 219.966 371.724 218.642C371.338 217.319 371.145 215.919 371.145 214.444C371.145 213.121 371.352 211.825 371.766 210.556C372.193 209.274 372.813 208.123 373.627 207.103C374.413 206.124 375.385 205.338 376.543 204.745C377.714 204.139 379.024 203.836 380.472 203.836C381.961 203.836 383.236 204.07 384.297 204.539C385.359 205.007 386.221 205.648 386.882 206.462C387.517 207.234 387.985 208.144 388.289 209.192C388.606 210.239 388.764 211.377 388.764 212.604V213.969H375.26C375.26 215.306 375.385 216.519 375.633 217.608C375.895 218.697 376.301 219.655 376.853 220.483C377.39 221.282 378.094 221.916 378.962 222.385C379.831 222.84 380.865 223.068 382.064 223.068C383.291 223.068 384.346 222.785 385.228 222.22C386.124 221.641 386.986 220.607 387.813 219.118L389.261 220.007ZM384.69 212.231C384.69 211.459 384.621 210.632 384.484 209.75C384.359 208.868 384.153 208.13 383.863 207.537C383.546 206.903 383.112 206.386 382.56 205.986C382.009 205.586 381.299 205.387 380.43 205.387C378.983 205.387 377.776 205.993 376.811 207.206C375.86 208.406 375.343 210.081 375.26 212.231H384.69ZM429.441 196.929C429.083 196.942 428.648 197.025 428.138 197.177C427.628 197.315 427.208 197.487 426.877 197.694C426.408 197.983 426.029 198.355 425.739 198.81C425.464 199.265 425.188 199.803 424.912 200.423C423.989 202.615 422.603 206.034 420.756 210.68C418.908 215.313 417.006 220.145 415.048 225.177H413.332C411.346 219.842 409.43 214.699 407.583 209.75C405.735 204.801 404.481 201.457 403.819 199.72C403.654 199.293 403.433 198.921 403.157 198.604C402.882 198.273 402.516 197.963 402.061 197.673C401.689 197.439 401.275 197.266 400.82 197.156C400.366 197.032 399.945 196.956 399.559 196.929V195.46H411.698V196.929C410.664 196.984 409.789 197.087 409.072 197.239C408.369 197.39 408.017 197.659 408.017 198.045C408.017 198.197 408.045 198.376 408.1 198.583C408.155 198.79 408.203 198.955 408.244 199.079C408.755 200.43 409.582 202.636 410.726 205.697C411.87 208.744 413.497 213.086 415.606 218.725C416.654 216.174 417.86 213.162 419.225 209.688C420.59 206.214 421.507 203.829 421.976 202.533C422.431 201.278 422.693 200.41 422.762 199.927C422.844 199.445 422.886 199.052 422.886 198.748C422.886 198.431 422.741 198.169 422.451 197.963C422.176 197.742 421.803 197.556 421.335 197.404C420.88 197.266 420.418 197.163 419.949 197.094C419.48 197.025 419.005 196.97 418.522 196.929V195.46H429.441V196.929ZM439.988 224.805H430.124V223.44C430.441 223.412 430.765 223.385 431.095 223.357C431.44 223.33 431.737 223.274 431.985 223.192C432.371 223.068 432.653 222.854 432.833 222.551C433.026 222.234 433.122 221.827 433.122 221.331V208.737C433.122 208.295 433.019 207.896 432.812 207.537C432.619 207.165 432.343 206.855 431.985 206.607C431.723 206.441 431.344 206.303 430.847 206.193C430.351 206.069 429.896 205.993 429.482 205.966V204.621L436.679 204.166L436.968 204.456V221.082C436.968 221.565 437.058 221.965 437.237 222.282C437.43 222.599 437.727 222.833 438.127 222.985C438.43 223.109 438.726 223.212 439.016 223.295C439.305 223.364 439.629 223.412 439.988 223.44V224.805ZM437.382 196.122C437.382 196.908 437.12 197.597 436.596 198.19C436.086 198.769 435.452 199.059 434.694 199.059C433.991 199.059 433.377 198.783 432.853 198.231C432.343 197.666 432.088 197.025 432.088 196.308C432.088 195.55 432.343 194.888 432.853 194.323C433.377 193.758 433.991 193.475 434.694 193.475C435.48 193.475 436.121 193.744 436.617 194.282C437.127 194.805 437.382 195.419 437.382 196.122ZM455.952 214.816C456.518 215.313 456.952 215.885 457.255 216.533C457.559 217.181 457.71 217.974 457.71 218.911C457.71 220.8 457 222.344 455.58 223.543C454.174 224.743 452.347 225.342 450.1 225.342C448.914 225.342 447.818 225.129 446.812 224.701C445.819 224.274 445.109 223.881 444.682 223.523L444.268 224.867H442.717L442.511 217.774H443.938C444.048 218.311 444.282 218.939 444.641 219.655C444.999 220.372 445.433 221.02 445.943 221.599C446.481 222.206 447.122 222.716 447.867 223.13C448.625 223.543 449.473 223.75 450.41 223.75C451.734 223.75 452.754 223.454 453.471 222.861C454.188 222.254 454.546 221.393 454.546 220.276C454.546 219.697 454.429 219.201 454.195 218.787C453.974 218.36 453.643 217.987 453.202 217.67C452.747 217.353 452.189 217.071 451.527 216.822C450.865 216.56 450.128 216.305 449.314 216.057C448.666 215.864 447.942 215.602 447.143 215.271C446.357 214.927 445.681 214.527 445.116 214.072C444.51 213.589 444.013 212.997 443.627 212.294C443.241 211.59 443.048 210.763 443.048 209.812C443.048 208.144 443.669 206.731 444.909 205.573C446.15 204.415 447.812 203.836 449.893 203.836C450.693 203.836 451.506 203.939 452.333 204.146C453.174 204.353 453.857 204.601 454.381 204.89L454.856 203.815H456.345L456.655 210.37H455.229C454.939 208.909 454.312 207.723 453.347 206.813C452.395 205.89 451.231 205.428 449.852 205.428C448.721 205.428 447.832 205.71 447.184 206.276C446.536 206.841 446.212 207.523 446.212 208.323C446.212 208.943 446.316 209.46 446.522 209.874C446.743 210.288 447.067 210.639 447.494 210.929C447.908 211.204 448.425 211.466 449.045 211.714C449.68 211.949 450.458 212.218 451.382 212.521C452.292 212.81 453.147 213.148 453.946 213.534C454.76 213.92 455.428 214.348 455.952 214.816ZM473.406 223.915C472.51 224.288 471.662 224.598 470.862 224.846C470.063 225.108 469.084 225.239 467.926 225.239C466.216 225.239 465.01 224.812 464.307 223.957C463.618 223.088 463.273 221.868 463.273 220.297V206.483H459.592V204.497H463.356V198.149H467.119V204.497H472.972V206.483H467.161V217.877C467.161 218.732 467.188 219.449 467.243 220.028C467.312 220.593 467.464 221.089 467.698 221.517C467.919 221.916 468.25 222.22 468.691 222.427C469.132 222.633 469.725 222.737 470.469 222.737C470.814 222.737 471.317 222.709 471.979 222.654C472.655 222.585 473.13 222.502 473.406 222.406V223.915ZM494.768 224.432C494.12 224.667 493.548 224.853 493.052 224.991C492.569 225.142 492.018 225.218 491.397 225.218C490.322 225.218 489.46 224.97 488.812 224.474C488.178 223.964 487.771 223.226 487.592 222.261H487.468C486.572 223.254 485.607 224.012 484.573 224.536C483.553 225.06 482.319 225.322 480.871 225.322C479.341 225.322 478.08 224.853 477.087 223.915C476.108 222.978 475.619 221.751 475.619 220.234C475.619 219.449 475.729 218.746 475.95 218.125C476.17 217.505 476.501 216.946 476.942 216.45C477.287 216.037 477.742 215.671 478.307 215.354C478.872 215.023 479.403 214.761 479.899 214.568C480.52 214.334 481.774 213.9 483.663 213.265C485.566 212.631 486.848 212.135 487.51 211.777V209.729C487.51 209.55 487.468 209.205 487.385 208.695C487.316 208.185 487.158 207.703 486.91 207.248C486.634 206.738 486.241 206.296 485.731 205.924C485.235 205.538 484.525 205.345 483.601 205.345C482.967 205.345 482.374 205.455 481.823 205.676C481.285 205.883 480.906 206.103 480.685 206.338C480.685 206.614 480.747 207.02 480.871 207.558C481.009 208.096 481.078 208.592 481.078 209.047C481.078 209.529 480.858 209.97 480.416 210.37C479.989 210.77 479.389 210.97 478.617 210.97C477.928 210.97 477.418 210.729 477.087 210.246C476.77 209.75 476.611 209.198 476.611 208.592C476.611 207.958 476.832 207.351 477.273 206.772C477.728 206.193 478.314 205.676 479.031 205.221C479.651 204.835 480.403 204.511 481.285 204.249C482.167 203.973 483.029 203.836 483.87 203.836C485.028 203.836 486.034 203.918 486.889 204.084C487.758 204.235 488.543 204.573 489.247 205.097C489.95 205.607 490.48 206.303 490.839 207.186C491.211 208.054 491.397 209.178 491.397 210.556C491.397 212.528 491.377 214.279 491.335 215.809C491.294 217.326 491.273 218.987 491.273 220.793C491.273 221.331 491.363 221.758 491.542 222.075C491.735 222.392 492.025 222.661 492.411 222.881C492.617 223.006 492.941 223.074 493.383 223.088C493.837 223.102 494.299 223.109 494.768 223.109V224.432ZM487.551 213.514C486.379 213.858 485.352 214.196 484.47 214.527C483.587 214.858 482.767 215.271 482.009 215.768C481.319 216.236 480.775 216.795 480.375 217.443C479.975 218.077 479.775 218.835 479.775 219.717C479.775 220.862 480.072 221.703 480.665 222.24C481.271 222.778 482.036 223.047 482.96 223.047C483.939 223.047 484.8 222.813 485.545 222.344C486.289 221.861 486.917 221.296 487.427 220.648L487.551 213.514Z" fill="white"/>
<defs>
<filter id="filter0_f_21_5" x="-0.000656128" y="-0.000656128" width="389.505" height="393.001" filterUnits="userSpaceOnUse" color-interpolation-filters="sRGB">
<feFlood flood-opacity="0" result="BackgroundImageFix"/>
<feBlend mode="normal" in="SourceGraphic" in2="BackgroundImageFix" result="shape"/>
<feGaussianBlur stdDeviation="91.2386" result="effect1_foregroundBlur_21_5"/>
</filter>
<filter id="filter1_f_21_5" x="144.364" y="176.86" width="26.8354" height="18.4878" filterUnits="userSpaceOnUse" color-interpolation-filters="sRGB">
<feFlood flood-opacity="0" result="BackgroundImageFix"/>
<feBlend mode="normal" in="SourceGraphic" in2="BackgroundImageFix" result="shape"/>
<feGaussianBlur stdDeviation="0.80261" result="effect1_foregroundBlur_21_5"/>
</filter>
<filter id="filter2_f_21_5" x="159.381" y="175.205" width="45.9295" height="21.5623" filterUnits="userSpaceOnUse" color-interpolation-filters="sRGB">
<feFlood flood-opacity="0" result="BackgroundImageFix"/>
<feBlend mode="normal" in="SourceGraphic" in2="BackgroundImageFix" result="shape"/>
<feGaussianBlur stdDeviation="1.5146" result="effect1_foregroundBlur_21_5"/>
</filter>
</defs>
</svg>
